<svg viewBox="0 0 16 16" aria-hidden="true" fill="currentColor" xmlns="http://www.w3.org/2000/svg">
    <path d="M15.8498 13.7746L0.900217 2.08775C0.859213 2.05492 0.812144 2.03049 0.761698 2.01585C0.711252 2.00121 0.658417 1.99665 0.606208 2.00243C0.554 2.00821 0.503442 2.02422 0.45742 2.04954C0.411398 2.07486 0.370813 2.10899 0.337984 2.15L0.0879916 2.46224C0.0550851 2.50325 0.0305898 2.55036 0.0159073 2.60085C0.00122475 2.65135 -0.00335674 2.70424 0.00242496 2.75651C0.00820666 2.80878 0.0242381 2.85939 0.0496018 2.90546C0.0749656 2.95152 0.109164 2.99213 0.15024 3.02497L15.0998 14.7119C15.1408 14.7447 15.1879 14.7691 15.2383 14.7838C15.2887 14.7984 15.3416 14.803 15.3938 14.7972C15.446 14.7914 15.4966 14.7754 15.5426 14.7501C15.5886 14.7248 15.6292 14.6906 15.662 14.6496L15.912 14.3374C15.9449 14.2964 15.9694 14.2493 15.9841 14.1988C15.9988 14.1483 16.0034 14.0954 15.9976 14.0431C15.9918 13.9908 15.9758 13.9402 15.9504 13.8942C15.925 13.8481 15.8908 13.8075 15.8498 13.7746V13.7746ZM7.41977 5.66164L10.7894 8.29606C10.7339 6.7976 9.51195 5.59989 8 5.59989C7.80497 5.60026 7.61051 5.62095 7.41977 5.66164ZM8.58023 11.1382L5.21058 8.5038C5.26633 10.002 6.4883 11.1997 8 11.1997C8.19501 11.1993 8.38946 11.1787 8.58023 11.1382V11.1382ZM8 4.79991C10.4662 4.79991 12.7271 6.17487 13.9481 8.3998C13.6488 8.94738 13.279 9.45335 12.8481 9.90476L13.7916 10.6422C14.3169 10.0803 14.7619 9.44842 15.114 8.76454C15.1712 8.65142 15.201 8.52644 15.201 8.39968C15.201 8.27292 15.1712 8.14794 15.114 8.03482C13.7571 5.38965 11.0732 3.59995 8 3.59995C7.08253 3.59995 6.2073 3.77495 5.38433 4.07019L6.54454 4.97741C7.01803 4.86991 7.50302 4.79991 8 4.79991ZM8 11.9997C5.53383 11.9997 3.27314 10.6247 2.05193 8.3998C2.35162 7.85223 2.72185 7.34635 3.15315 6.8951L2.20968 6.15762C1.68448 6.71948 1.23953 7.35128 0.887467 8.03507C0.830279 8.14819 0.800484 8.27317 0.800484 8.39993C0.800484 8.52669 0.830279 8.65167 0.887467 8.76479C2.24318 11.41 4.92709 13.1997 8 13.1997C8.91747 13.1997 9.7927 13.0234 10.6157 12.7294L9.45546 11.8225C8.98197 11.9297 8.49723 11.9997 8 11.9997Z"/>
</svg>
