<svg viewBox="0 0 16 16" aria-hidden="true" fill="currentColor" xmlns="http://www.w3.org/2000/svg">
    <path d="M8 5.22223C7.70559 5.22683 7.41336 5.2736 7.13222 5.36112C7.26227 5.58981 7.33151 5.84804 7.33333 6.11112C7.33333 6.3154 7.2931 6.51767 7.21492 6.7064C7.13675 6.89513 7.02217 7.06662 6.87772 7.21106C6.73327 7.35551 6.56179 7.47009 6.37306 7.54827C6.18433 7.62644 5.98205 7.66668 5.77777 7.66668C5.51469 7.66485 5.25647 7.59561 5.02777 7.46556C4.84734 8.09134 4.86837 8.75803 5.08788 9.37119C5.3074 9.98435 5.71428 10.5129 6.25088 10.882C6.78748 11.251 7.4266 11.4419 8.07771 11.4276C8.72883 11.4132 9.35892 11.1944 9.87875 10.802C10.3986 10.4097 10.7818 9.86374 10.9741 9.24151C11.1664 8.61927 11.158 7.95231 10.9502 7.33508C10.7424 6.71786 10.3456 6.18167 9.81613 5.80246C9.28665 5.42326 8.65127 5.22026 8 5.22223ZM15.9033 7.92779C14.397 4.98861 11.4147 3 8 3C4.58527 3 1.60221 4.99 0.0966517 7.92806C0.0331076 8.05376 0 8.19264 0 8.33348C0 8.47433 0.0331076 8.6132 0.0966517 8.7389C1.60304 11.6781 4.58527 13.6667 8 13.6667C11.4147 13.6667 14.3978 11.6767 15.9033 8.73862C15.9669 8.61292 16 8.47405 16 8.3332C16 8.19236 15.9669 8.05348 15.9033 7.92779ZM8 12.3334C5.25972 12.3334 2.74749 10.8056 1.39082 8.33334C2.74749 5.86112 5.25944 4.33334 8 4.33334C10.7406 4.33334 13.2525 5.86112 14.6092 8.33334C13.2528 10.8056 10.7406 12.3334 8 12.3334Z"/>
</svg>
