<svg viewBox="0 0 20 20" aria-hidden="true" fill="currentColor" xmlns="http://www.w3.org/2000/svg">
    <path d="M19.8633 18.3164L15.1211 13.5742C15.0312 13.4844 14.9141 13.4375 14.7891 13.4375H14.2734C15.5039 12.0117 16.25 10.1562 16.25 8.125C16.25 3.63672 12.6133 0 8.125 0C3.63672 0 0 3.63672 0 8.125C0 12.6133 3.63672 16.25 8.125 16.25C10.1562 16.25 12.0117 15.5039 13.4375 14.2734V14.7891C13.4375 14.9141 13.4883 15.0312 13.5742 15.1211L18.3164 19.8633C18.5 20.0469 18.7969 20.0469 18.9805 19.8633L19.8633 18.9805C20.0469 18.7969 20.0469 18.5 19.8633 18.3164ZM8.125 14.375C4.67188 14.375 1.875 11.5781 1.875 8.125C1.875 4.67188 4.67188 1.875 8.125 1.875C11.5781 1.875 14.375 4.67188 14.375 8.125C14.375 11.5781 11.5781 14.375 8.125 14.375Z"></path>
</svg>
